<svg width="15" height="13" viewBox="0 0 13 11" fill="none" xmlns="http://www.w3.org/2000/svg" fill="#03A9F4">
  <path d="M12.3466 1.96117C11.9175 2.1494 11.4603 2.27415 10.9836 2.33473C11.474 2.04194 11.8483 1.58185 12.0242 1.02728C11.567 1.29988 11.0622 1.49242 10.5242 1.59988C10.0901 1.13762 9.47133 0.851318 8.79633 0.851318C7.48671 0.851318 6.43238 1.9143 6.43238 3.21742C6.43238 3.40492 6.44825 3.58521 6.48719 3.75685C4.52061 3.66093 2.78046 2.71839 1.61147 1.28257C1.40738 1.63665 1.28767 2.04194 1.28767 2.47824C1.28767 3.29747 1.70955 4.02367 2.33839 4.44411C1.95835 4.4369 1.58551 4.32656 1.26964 4.15276C1.26964 4.15997 1.26964 4.16935 1.26964 4.17872C1.26964 5.32824 2.0896 6.28305 3.16484 6.503C2.97229 6.55565 2.76243 6.58089 2.54464 6.58089C2.3932 6.58089 2.24032 6.57223 2.09681 6.5405C2.4033 7.47728 3.27301 8.16598 4.30714 8.18834C3.50234 8.8179 2.48046 9.19723 1.37421 9.19723C1.18022 9.19723 0.994163 9.18858 0.808105 9.16478C1.85594 9.8405 3.09777 10.2263 4.43695 10.2263C8.78984 10.2263 11.1696 6.62055 11.1696 3.49507C11.1696 3.3905 11.166 3.28954 11.161 3.1893C11.6305 2.85613 12.0249 2.44002 12.3466 1.96117Z"/>
</svg>
